<?xml version="1.0" encoding="UTF-8" standalone="no"?>
<!-- Created by Hugo Lopez, using Inkscape (http://www.inkscape.org/). -->
<svg id="svg2" xmlns:rdf="http://www.w3.org/1999/02/22-rdf-syntax-ns#" xmlns="http://www.w3.org/2000/svg" docbase="/home/yug/svg to optized txt" height="300px" width="300px" version="1.00" docname="Optimized Model 夊 300px.svg" xmlns:cc="http://creativecommons.org/ns#" xmlns:dc="http://purl.org/dc/elements/1.1/">
 <namedview id="namedview4"/>
 <namedview id="namedview6"/>
 <metadata id="metadata8">
  <rdf:RDF>
   <cc:Work rdf:about="">
    <dc:format>image/svg+xml</dc:format>
    <dc:type rdf:resource="http://purl.org/dc/dcmitype/StillImage"/>
    <dc:title/>
   </cc:Work>
  </rdf:RDF>
 </metadata>
 <namedview id="namedview12" borderopacity="1.0000000" pageopacity="0.0000000" document-units="px"/>
 <g id="layer1" label="Layer 1" transform="translate(.7880 -3.2)" groupmode="layer">
  <g id="character 夊" transform="scale(.97978 1.0206)">
   <path id="path2912" d="m123.8 197.93c-8.5225 0-13.171-6.973-13.171-19.757 0-23.631 25.568-90.648 66.243-90.648 7.7477 0 12.396 1.5496 18.207 5.4234-7.3603 36.027-43.775 104.98-71.279 104.98m75.54-119.7-1.5495 3.0991c-7.3603-3.8739-12.396-5.036-21.306-5.036-68.955 0-97.621 79.027-97.621 107.69 0 25.18 13.946 31.766 25.568 32.153 29.441 0.77477 60.045-34.09 70.892-53.459l0.77478 0.38739c-13.171 41.063-1.5495 53.072 21.694 53.072 45.324 0 87.162-40.676 87.162-93.748 0-62.757-44.937-113.5-118.54-113.5-79.802 0-156.12 58.108-156.12 156.5 0 83.675 67.405 123.19 132.1 123.19 24.018 0 55.396-4.2613 79.414-17.432l-3.0991-9.6847c-17.432 7.3603-43 12.009-65.468 12.009-87.162 0-112.73-61.982-112.73-109.63 0-70.892 48.811-139.07 126.68-139.07 55.009 0 99.558 36.027 98.396 99.558 0 39.901-27.504 77.09-53.459 77.09-10.847 0-17.82-4.6487-13.171-23.243l25.568-99.946h-25.18"/>
  </g>
 </g>
</svg>